<?xml version="1.0" encoding="UTF-8" standalone="no"?>
<!-- Created with Inkscape (http://www.inkscape.org/) -->

<svg
   xmlns:dc="http://purl.org/dc/elements/1.1/"
   xmlns:cc="http://creativecommons.org/ns#"
   xmlns:rdf="http://www.w3.org/1999/02/22-rdf-syntax-ns#"
   xmlns:svg="http://www.w3.org/2000/svg"
   xmlns="http://www.w3.org/2000/svg"
   xmlns:sodipodi="http://sodipodi.sourceforge.net/DTD/sodipodi-0.dtd"
   xmlns:inkscape="http://www.inkscape.org/namespaces/inkscape"
   version="1.1"
   width="463"
   height="463"
   viewBox="-0.327 -0.089 463 463"
   id="svg2"
   xml:space="preserve"
   inkscape:version="0.48.3.1 r9886"
   sodipodi:docname="pp-idf-propo1.svg"><metadata
   id="metadata2992"><rdf:RDF><cc:Work
       rdf:about=""><dc:format>image/svg+xml</dc:format><dc:type
         rdf:resource="http://purl.org/dc/dcmitype/StillImage" /><dc:title /></cc:Work></rdf:RDF></metadata><sodipodi:namedview
   pagecolor="#ffffff"
   bordercolor="#666666"
   borderopacity="1"
   objecttolerance="10"
   gridtolerance="10"
   guidetolerance="10"
   inkscape:pageopacity="0"
   inkscape:pageshadow="2"
   inkscape:window-width="1680"
   inkscape:window-height="998"
   id="namedview2990"
   showgrid="false"
   inkscape:zoom="1.7688985"
   inkscape:cx="328.78189"
   inkscape:cy="218.35593"
   inkscape:window-x="1834"
   inkscape:window-y="-8"
   inkscape:window-maximized="1"
   inkscape:current-layer="svg2" />
	<defs
   id="defs4" />
	<path
   d="M 231.17299,451.91098 C 109.39398,451.91098 10.673,353.19001 10.673,231.411 c 0,-121.77795 98.72098,-220.500001 220.49999,-220.500001 121.77901,0 220.49999,98.722051 220.49999,220.500001 0,121.78007 -98.72098,220.49998 -220.49999,220.49998 z"
   id="path2827"
   style="fill:#ffffff;stroke:#000000;stroke-width:22;stroke-miterlimit:4;stroke-opacity:1;stroke-dasharray:none" />
<path
   style="fill:#0000bc;fill-opacity:1"
   d="M 206.03899,441.77696 C 130.8003,432.26854 67.328447,383.88595 37.84608,313.56882 c -4.972993,-11.86088 -9.106837,-25.8426 -12.479813,-42.20993 -0.328207,-1.59262 0.01243,-1.65361 12.127114,-2.17154 12.069068,-0.51599 14.926806,-0.30791 27.73952,2.01971 8.225583,1.49431 27.21533,1.23456 38.180339,-0.52223 8.09947,-1.29768 9.83107,-1.35652 13.67187,-0.46456 8.55903,1.98769 27.03571,3.85014 38.77279,3.9083 8.75552,0.0434 18.96503,-1.49935 23.15952,-3.49956 2.40779,-1.1482 3.56185,-1.21174 8.56169,-0.47141 3.17834,0.47062 7.36082,1.21175 9.29442,1.64695 1.93359,0.43521 14.9414,1.00603 28.90625,1.26848 l 25.39062,0.4772 5.69938,-2.39504 c 10.10042,-4.24448 26.93573,-4.26249 39.30271,-0.042 2.4074,0.82157 5.49486,1.49376 6.86103,1.49376 1.36617,0 3.79101,0.57317 5.38854,1.27372 6.43579,2.8222 23.07873,3.53697 43.92022,1.88625 6.23047,-0.49347 15.74986,-1.16983 21.15422,-1.503 7.80362,-0.4811 10.5894,-0.9753 13.53465,-2.40107 3.55214,-1.71956 3.96149,-1.75236 9.70516,-0.77764 3.71008,0.62961 10.61392,0.9261 18.10597,0.77758 19.00639,-0.37679 21.0288,-0.36245 21.54396,0.1527 0.79633,0.79634 -2.71039,15.04997 -6.6992,27.2299 -15.6458,47.77485 -48.31234,88.55626 -91.70542,114.48644 -22.73404,13.58506 -46.256,22.14596 -73.92059,26.90364 -12.55784,2.15965 -44.92663,2.79649 -58.02204,1.14153 l 0,0 z"
   id="path2998"
   inkscape:connector-curvature="0" /><path
   style="fill:#ff0000;fill-opacity:1"
   d="m 326.56997,271.54496 c -0.34963,-0.36083 -3.61339,-0.88698 -7.25281,-1.16922 -3.63941,-0.28225 -7.09011,-0.90468 -7.66821,-1.3832 -0.5781,-0.47852 -2.77801,-1.084 -4.88868,-1.34553 -2.11067,-0.26152 -5.7763,-1.10995 -8.14585,-1.88541 -8.08539,-2.64598 -15.00238,-3.38269 -26.81279,-2.85577 -9.99527,0.44594 -11.78795,0.74827 -16.93857,2.85668 -5.68956,2.32903 -5.93465,2.35771 -19.9747,2.33757 -17.20331,-0.0247 -37.00719,-1.1642 -40.00799,-2.30209 -1.20729,-0.45779 -5.2525,-1.04879 -8.98938,-1.31335 -5.53199,-0.39163 -7.27202,-0.23462 -9.36543,0.84506 -8.97188,4.62726 -35.42631,4.46371 -56.50852,-0.34938 -6.98632,-1.59498 -7.00678,-1.59419 -21.93302,0.85452 -7.823324,1.28344 -24.906205,1.34154 -31.724535,0.1079 -3.01579,-0.54565 -7.672181,-1.36892 -10.347535,-1.82948 -3.121648,-0.5374 -9.616312,-0.63482 -18.128807,-0.27193 -15.354056,0.65453 -13.556874,1.81953 -15.092249,-9.78336 -1.260468,-9.5254 -1.267861,-37.2659 -0.0125,-46.875 4.719686,-36.12648 16.073246,-66.38118 35.5246,-94.66514 33.888698,-49.277116 84.826213,-80.494355 145.921133,-89.428289 14.22165,-2.079637 41.76788,-1.885877 56.67771,0.398671 45.98856,7.046563 86.14403,27.187404 118.45649,59.414402 33.85873,33.769156 55.20842,78.227196 60.24486,125.452226 1.26544,11.86572 1.08755,35.56453 -0.35187,46.875 -0.65621,5.15625 -1.19591,9.63868 -1.19935,9.96094 -0.003,0.32227 -2.20936,0.59501 -4.90203,0.6061 -2.69266,0.0111 -8.24445,0.34296 -12.33731,0.73751 -4.65365,0.44862 -10.08273,0.43379 -14.49145,-0.0395 -15.82023,-1.69859 -18.37504,-1.76848 -19.79786,-0.54162 -2.08908,1.80135 -4.49202,2.27751 -15.05997,2.98421 -5.38534,0.36014 -14.02146,0.99221 -19.19139,1.40462 -20.064,1.60052 -25.08886,1.8357 -25.70199,1.20292 l 0,-3e-5 z"
   id="path3000"
   inkscape:connector-curvature="0" /><g
   id="g4646"
   transform="translate(483.92621,340.29514)"><g
     transform="translate(-471.77281,-324.82718)"
     id="g4601"><path
       d="m 107.102,86.936177 c 16.55983,-4.82458 86.38243,4.68127 72.11479,72.223293 -5.19239,24.57941 -33.68128,36.5535 -47.48966,46.89461 -32.687705,24.47977 -4.53661,82.61899 -4.53661,82.61899 0,0 -15.22983,-45.22068 18.68551,-66.61532 31.20416,-19.68454 138.78198,-10.43596 138.41211,-71.15124 C 283.57913,34.580983 102.31836,76.545247 107.102,86.936177 z"
       id="path8"
       inkscape:connector-curvature="0" /><rect
       width="13.789963"
       height="171.03021"
       x="121.02298"
       y="53.667076"
       id="rect10" /></g><g
     transform="matrix(0.66772987,0,0,0.66772987,-103.88457,-52.763425)"
     id="g4621"><g
       id="g4585"><path
         inkscape:connector-curvature="0"
         style="fill:#ffffff;fill-opacity:1;fill-rule:evenodd;stroke:#000000;stroke-width:2.29999995;stroke-linecap:butt;stroke-linejoin:miter;stroke-miterlimit:4;stroke-opacity:1;stroke-dasharray:none;stroke-dashoffset:0;marker:none;visibility:visible;display:inline;overflow:visible"
         d="m -208.63037,-90.087724 92.38609,-11.031176 -0.91921,39.068746 -7.81375,8.27338 -11.03121,0.45963 c -12.30154,185.715184 -282.87218,186.071764 -320.3637,25.27978 l -7.81374,-0.45963 -6.43486,-10.11191 -3.67706,-0.91927 -10.11191,-31.71463 c 3.36702,0.76878 5.04925,2.08004 10.57154,4.13669 l 74.92007,1.83853 -1.3789,29.41647 -4.59632,-2.29817 -2.29817,8.27339 c 50.01089,86.84161 193.42876,71.53221 211.89052,-21.60272 l -11.98185,-7.91052 -1.34754,-30.69859 z"
         id="path6784-7"
         sodipodi:nodetypes="cccccccccccccccccc" /><path
         inkscape:connector-curvature="0"
         style="fill:#ffffff;fill-opacity:1;fill-rule:evenodd;stroke:#000000;stroke-width:2.29999995;stroke-linecap:butt;stroke-linejoin:miter;stroke-miterlimit:4;stroke-opacity:1;stroke-dasharray:none;stroke-dashoffset:0;marker:none;visibility:visible;display:inline;overflow:visible"
         d="m -471.99964,-61.559154 11.52217,0.87221 0.0157,15.19923 -9.69933,0.0314 -1.83852,-16.10281 z"
         id="path6786-4"
         sodipodi:nodetypes="ccccc" /><path
         inkscape:connector-curvature="0"
         style="fill:#ffffff;fill-opacity:1;fill-rule:evenodd;stroke:#000000;stroke-width:2.29999995;stroke-linecap:butt;stroke-linejoin:miter;stroke-miterlimit:4;stroke-opacity:1;stroke-dasharray:none;stroke-dashoffset:0;marker:none;visibility:visible;display:inline;overflow:visible"
         d="m -454.07399,-60.211624 11.03118,0.91926 0,14.26429 -11.06255,-0.45964 0.0314,-14.72391 z"
         id="path6788-0"
         sodipodi:nodetypes="ccccc" /><path
         inkscape:connector-curvature="0"
         style="fill:#ffffff;fill-opacity:1;fill-rule:evenodd;stroke:#000000;stroke-width:2.29999995;stroke-linecap:butt;stroke-linejoin:miter;stroke-miterlimit:4;stroke-opacity:1;stroke-dasharray:none;stroke-dashoffset:0;marker:none;visibility:visible;display:inline;overflow:visible"
         d="m -435.75144,-58.832724 10.63429,0.45963 0,13.78896 -10.57155,-0.42826 -0.0627,-13.82033 z"
         id="path6790-9"
         sodipodi:nodetypes="ccccc" /><path
         inkscape:connector-curvature="0"
         style="fill:#ffffff;fill-opacity:1;fill-rule:evenodd;stroke:#000000;stroke-width:2.29999995;stroke-linecap:butt;stroke-linejoin:miter;stroke-miterlimit:4;stroke-opacity:1;stroke-dasharray:none;stroke-dashoffset:0;marker:none;visibility:visible;display:inline;overflow:visible"
         d="m -419.22036,-57.960514 11.99749,-0.0471 0.45964,14.31134 -12.41008,-0.8879 -0.0471,-13.37638 z"
         id="path6792-4"
         sodipodi:nodetypes="ccccc" /><path
         inkscape:connector-curvature="0"
         style="fill:#ffffff;fill-opacity:1;fill-rule:evenodd;stroke:#000000;stroke-width:2.29999995;stroke-linecap:butt;stroke-linejoin:miter;stroke-miterlimit:4;stroke-opacity:1;stroke-dasharray:none;stroke-dashoffset:0;marker:none;visibility:visible;display:inline;overflow:visible"
         d="m -196.75843,-67.565744 15.65892,-0.95063 c 1.02168,-12.15888 -0.46489,-18.93464 -8.67033,-17.86292 -8.56042,1.11808 -7.95725,7.47234 -6.98859,18.81355 z"
         id="path6794-8"
         sodipodi:nodetypes="ccsc" /><path
         inkscape:connector-curvature="0"
         style="fill:#ffffff;fill-opacity:1;fill-rule:evenodd;stroke:#000000;stroke-width:2.29999995;stroke-linecap:butt;stroke-linejoin:miter;stroke-miterlimit:4;stroke-opacity:1;stroke-dasharray:none;stroke-dashoffset:0;marker:none;visibility:visible;display:inline;overflow:visible"
         d="m -471.11175,-39.068544 6.92586,11.49081 57.45403,-1.34753 2.77347,-8.7487 -67.15336,-1.39458 z"
         id="path6802-8"
         sodipodi:nodetypes="ccccc" /><path
         inkscape:connector-curvature="0"
         style="fill:none;stroke:#000000;stroke-width:2.29999995;stroke-linecap:butt;stroke-linejoin:miter;stroke-miterlimit:4;stroke-opacity:1;stroke-dasharray:none;stroke-dashoffset:0;marker:none;visibility:visible;display:inline;overflow:visible"
         d="m -419.01646,-28.909584 c 15.9533,73.90013 196.52776,125.17622 237.96401,-23.02866"
         id="path6806-2"
         sodipodi:nodetypes="cc" /><path
         inkscape:connector-curvature="0"
         style="fill:#ffffff;fill-opacity:1;fill-rule:evenodd;stroke:#000000;stroke-width:2.29999995;stroke-linecap:butt;stroke-linejoin:miter;stroke-miterlimit:4;stroke-opacity:1;stroke-dasharray:none;stroke-dashoffset:0;marker:none;visibility:visible;display:inline;overflow:visible"
         d="m -153.01484,-52.857504 -14.78662,0.491 c -12.60439,142.94485 -227.42572,142.46325 -265.12944,23.40987 l -10.56586,0.91921 c 13.4628,114.33038 270.65311,158.957874 290.48192,-24.82008 z"
         id="path6804-4"
         sodipodi:nodetypes="cccsc" /><path
         inkscape:connector-curvature="0"
         style="fill:#ffffff;fill-opacity:1;fill-rule:evenodd;stroke:#000000;stroke-width:2.29999995;stroke-linecap:butt;stroke-linejoin:miter;stroke-miterlimit:4;stroke-opacity:1;stroke-dasharray:none;stroke-dashoffset:0;marker:none;visibility:visible;display:inline;overflow:visible"
         d="m -206.7918,-58.899034 88.64625,-3.61076 -6.37208,9.19265 -72.16231,3.61076 -10.11186,-9.19265 z"
         id="path6800-5"
         sodipodi:nodetypes="ccccc" /><path
         inkscape:connector-curvature="0"
         style="fill:#ffffff;fill-opacity:1;fill-rule:evenodd;stroke:#000000;stroke-width:2.29999995;stroke-linecap:butt;stroke-linejoin:miter;stroke-miterlimit:4;stroke-opacity:1;stroke-dasharray:none;stroke-dashoffset:0;marker:none;visibility:visible;display:inline;overflow:visible"
         d="m -178.41835,-93.696844 17.87556,-2.27507"
         id="path10380-5" /><path
         inkscape:connector-curvature="0"
         style="fill:#ffffff;fill-opacity:1;fill-rule:evenodd;stroke:#000000;stroke-width:2.29999995;stroke-linecap:butt;stroke-linejoin:miter;stroke-miterlimit:4;stroke-opacity:1;stroke-dasharray:none;stroke-dashoffset:0;marker:none;visibility:visible;display:inline;overflow:visible"
         d="m -466.05138,-67.696124 13.32538,0.65002"
         id="path10382-1" /><path
         inkscape:connector-curvature="0"
         style="fill:#ffffff;fill-opacity:1;fill-rule:evenodd;stroke:#000000;stroke-width:2.29999995;stroke-linecap:butt;stroke-linejoin:miter;stroke-miterlimit:4;stroke-opacity:1;stroke-dasharray:none;stroke-dashoffset:0;marker:none;visibility:visible;display:inline;overflow:visible"
         d="m -170.19206,-69.057694 16.7296,-1.01565 c 1.0916,-12.99025 -0.49661,-20.2293 -9.26316,-19.0843 -9.14573,1.19453 -8.50129,7.98326 -7.46644,20.09995 z"
         id="path3431-7"
         sodipodi:nodetypes="ccsc" /><path
         inkscape:connector-curvature="0"
         sodipodi:nodetypes="ccsc"
         id="path3433-1"
         d="m -142.45597,-70.492414 16.87176,-1.02428 c 1.10083,-13.10071 -0.50094,-20.40132 -9.34187,-19.24659 -9.22347,1.2047 -8.57361,8.05115 -7.52989,20.27087 z"
         style="fill:#ffffff;fill-opacity:1;fill-rule:evenodd;stroke:#000000;stroke-width:2.29999995;stroke-linecap:butt;stroke-linejoin:miter;stroke-miterlimit:4;stroke-opacity:1;stroke-dasharray:none;stroke-dashoffset:0;marker:none;visibility:visible;display:inline;overflow:visible" /></g><path
       style="fill:#000000"
       d="m -308.96224,41.500579 c -22.7841,-2.233071 -38.02264,-6.294129 -55.72343,-14.850242 -17.76124,-8.585337 -31.88926,-19.6664795 -41.52339,-32.5683885 -3.1838,-4.2636925 -8.89956,-15.0209005 -9.58578,-18.0406685 -0.18346,-0.80732 -0.48551,-1.863837 -0.67123,-2.347816 -0.29343,-0.764671 0.31118,-0.879962 4.61475,-0.879962 l 4.95243,0 2.01383,3.262666 c 5.25375,8.511746 14.64979,18.9473871 23.55486,26.1610259 12.67158,10.2647371 29.45026,18.4820421 46.63691,22.8402781 12.46771,3.161596 29.13559,4.597299 41.47522,3.572507 49.01189,-4.070377 85.9738,-31.2632924 97.6838,-71.866056 1.54781,-5.366815 1.49775,-5.334663 8.48378,-5.44972 l 3.96854,-0.06536 -1.82019,5.386165 c -16.93127,50.1017311 -53.49927,80.128435 -103.06787,84.631043 -5.93216,0.538854 -16.57356,0.647604 -20.99223,0.214529 z"
       id="path4605"
       inkscape:connector-curvature="0"
       transform="translate(-0.327,-0.089)" /><path
       style="fill:#000000"
       d="m -310.89573,55.953162 c -0.60767,-0.109441 -3.83937,-0.490677 -7.18156,-0.847191 -26.05765,-2.779598 -53.08764,-13.26424 -72.64417,-28.17789 -14.52405,-11.075917 -26.475,-25.2186446 -33.82437,-40.027686 -3.141,-6.329154 -5.6862,-12.877946 -5.19566,-13.368479 0.20875,-0.208753 2.55613,-0.483616 5.2164,-0.610805 l 4.83685,-0.231252 0.72801,2.962064 c 1.08697,4.422665 6.19853,14.5239543 9.88522,19.5348798 10.02393,13.6244286 23.9431,24.7019632 42.38413,33.7312922 20.94367,10.254705 44.22589,15.700676 67.1199,15.700101 49.00104,-0.0012 88.13441,-24.202425 109.40871,-67.66149 3.79397,-7.750289 8.15278,-18.718773 9.38772,-23.623141 l 0.659,-2.61715 5.49255,0 5.49254,0 -0.36093,2.624029 c -6.01086,43.7006359 -31.9872,76.482648 -73.58311,92.861528 -9.95802,3.921084 -18.95395,6.304818 -31.91347,8.456406 -5.05429,0.839131 -9.97565,1.147292 -20.71602,1.297182 -7.74779,0.108121 -14.58407,0.107044 -15.19174,-0.0022 l 0,-1.88e-4 z"
       id="path4607"
       inkscape:connector-curvature="0"
       transform="translate(-0.327,-0.089)" /><path
       style="fill:#000000"
       d="m -306.47632,69.699887 c -55.41647,-4.448315 -104.07042,-30.667105 -125.14622,-67.439178 -3.41232,-5.9536667 -7.02456,-15.318614 -8.59121,-22.273218 -0.76691,-3.404451 -1.28526,-6.299028 -1.15189,-6.432393 0.13336,-0.133366 1.94991,-0.381865 4.03678,-0.552221 l 3.79429,-0.309738 1.55396,4.461603 c 6.41836,18.4278301 21.4179,38.452686 38.6002,51.532455 21.8031,16.597287 48.60048,26.682238 79.13829,29.782984 9.43815,0.958328 31.66717,0.382915 40.39627,-1.04569 39.36091,-6.441803 70.35291,-25.10861 89.18761,-53.7186419 8.69662,-13.2102214 15.39737,-31.4965691 17.71859,-48.3540341 l 0.6929,-5.032077 5.82229,-0.329713 c 3.20226,-0.181342 5.87898,-0.273026 5.94826,-0.203742 0.0693,0.06928 -0.48308,3.725051 -1.22749,8.123926 -4.0158,23.730225 -12.61272,44.6266004 -25.30293,61.503359 -4.2606,5.666174 -14.25442,16.027095 -19.67989,20.402777 -18.61798,15.015528 -41.69689,24.578711 -69.0534,28.613595 -7.24253,1.068217 -29.61475,1.841604 -36.73641,1.269947 l 0,0 z"
       id="path4609"
       inkscape:connector-curvature="0"
       transform="translate(-0.327,-0.089)" /><path
       style="fill:#000000"
       d="M -306.75253,87.652091 C -369.8867,83.116658 -421.9409,49.961139 -444.98465,-0.39377979 -448.19045,-7.399042 -450.91601,-14.722791 -452.77874,-21.33694 l -1.30324,-4.627503 1.9873,-0.328734 c 1.09301,-0.180804 3.24421,-0.33147 4.78043,-0.334814 l 2.79313,-0.0061 0.9622,5.01935 c 5.05312,26.3598342 23.66501,50.286494 53.11367,68.280693 20.61368,12.59571 45.34359,20.964893 73.47282,24.864935 10.92796,1.515131 37.95381,1.348386 48.50518,-0.299272 42.65515,-6.660835 74.29135,-25.822147 94.95513,-57.512099 10.55636,-16.1892233 17.94913,-36.488856 21.11052,-57.96684 0.46437,-3.154827 0.9494,-5.841147 1.07785,-5.9696 0.12846,-0.128453 3.35886,-0.381221 7.17869,-0.561707 l 6.94513,-0.328156 -0.23094,1.878338 c -0.12701,1.033087 -0.51319,4.239966 -0.85817,7.126397 -2.23861,18.730447 -8.25629,37.7680908 -17.11265,54.137864 -18.57495,34.333249 -52.6018,59.791126 -93.89841,70.252009 -11.06576,2.803071 -23.83422,4.78735 -33.17685,5.15583 -16.01045,0.631469 -18.13299,0.649693 -24.27558,0.20842 z"
       id="path4611"
       inkscape:connector-curvature="0"
       transform="translate(-0.327,-0.089)" /><path
       style="fill:#000000"
       d="m -465.48896,-33.108562 c -1.38231,-2.34563 -2.46442,-4.29684 -2.40469,-4.336023 0.30215,-0.19821 61.70826,1.239595 61.91571,1.449738 0.13342,0.135151 -0.17032,1.488689 -0.67498,3.007864 l -0.91757,2.762136 -12.98204,0.09906 c -7.14012,0.05449 -18.94825,0.363751 -26.24029,0.687262 -7.29204,0.323512 -13.91628,0.589674 -14.72055,0.591474 -1.23934,0.0028 -1.84547,-0.646951 -3.97559,-4.261511 l 0,0 z"
       id="path4613"
       inkscape:connector-curvature="0"
       transform="translate(-0.327,-0.089)" /><path
       style="fill:#000000"
       d="m -403.41811,-39.137909 c -1.05837,-0.445224 -1.99034,-0.610659 -2.07105,-0.367635 -0.0807,0.243024 -13.26022,0.155207 -29.28782,-0.195148 -16.0276,-0.350356 -31.1358,-0.661096 -33.57379,-0.690534 l -4.43271,-0.05352 -4.4545,-13.948786 c -2.44998,-7.671833 -4.39862,-14.024333 -4.33032,-14.116667 0.0683,-0.09233 1.70592,0.501127 3.63915,1.318804 l 3.51497,1.486685 36.8807,0.943121 c 20.28438,0.518717 37.01864,1.08107 37.18725,1.249675 0.25316,0.253167 -0.78417,24.803016 -1.06025,25.092084 -0.048,0.05028 -0.95325,-0.272853 -2.01163,-0.718075 z m -1.66646,-8.131145 c 0,-2.841862 -0.15971,-6.695041 -0.35491,-8.562621 l -0.35491,-3.395599 -7.43204,0 -7.43205,0 0.19108,7.688718 c 0.1051,4.228795 0.36353,7.860816 0.5743,8.071159 0.33181,0.331137 7.48686,1.037679 13.01314,1.285012 l 1.79539,0.08035 0,-5.167022 z m -36.85961,-13.09958 c -0.23607,-0.218774 -3.35018,-0.573173 -6.92024,-0.787555 l -6.49102,-0.389786 0,8.876328 0,8.876328 6.76723,0.15511 6.76723,0.15511 0.15302,-8.243883 c 0.0841,-4.534136 -0.0401,-8.422879 -0.27622,-8.641652 l 0,0 z m 18.62952,8.875341 0,-8.286408 -3.72889,-0.0048 c -2.05088,-0.0027 -5.03399,-0.161564 -6.62912,-0.353162 l -2.90025,-0.348356 0,8.32285 c 0,7.461996 0.1,8.348981 0.96675,8.575487 0.53171,0.138951 3.51482,0.281475 6.62913,0.31672 l 5.66238,0.06408 0,-8.286407 z m -35.35534,-1.331478 0,-9.065457 -4.83374,-0.343674 c -2.65856,-0.189022 -5.89026,-0.475162 -7.18156,-0.635867 -2.81248,-0.350023 -2.69166,-1.242699 -1.40898,10.409728 l 0.95776,8.700728 6.23326,0 6.23326,0 0,-9.065458 z"
       id="path4615"
       inkscape:connector-curvature="0"
       transform="translate(-0.327,-0.089)" /><path
       style="fill:#000000"
       d="m -205.90677,-68.126898 c -0.20405,-4.372173 -0.41807,-10.7995 -0.47561,-14.282951 l -0.10462,-6.333546 44.47039,-5.334963 c 24.45871,-2.934229 44.51996,-5.296431 44.58055,-5.249337 0.2095,0.16285 -0.77516,35.148985 -0.99469,35.342142 -0.12118,0.106619 -16.75171,0.852664 -36.95673,1.657878 -20.20503,0.805214 -39.75408,1.61841 -43.44235,1.807103 l -6.70594,0.343078 -0.371,-7.949404 z m 20.06098,1.395645 6.83054,-0.359697 -0.21768,-6.986286 c -0.23985,-7.698267 -1.06676,-10.279646 -3.9926,-12.463867 -2.07464,-1.548772 -7.65172,-1.52842 -10.3333,0.03771 -4.12124,2.406931 -5.20015,5.936671 -4.59159,15.021671 l 0.38233,5.707507 2.54588,-0.298669 c 1.40024,-0.164268 5.61963,-0.460533 9.37642,-0.658367 l 0,0 z m 29.82029,-1.692728 4.61004,-0.333984 -0.1917,-7.249945 c -0.16434,-6.215191 -0.37369,-7.619724 -1.46679,-9.84077 -2.35255,-4.780079 -8.1434,-6.153857 -13.79234,-3.271987 -4.19297,2.139093 -5.35798,5.910763 -4.77083,15.445362 l 0.3868,6.2812 5.30739,-0.347946 c 2.91906,-0.19137 7.38191,-0.498239 9.91743,-0.68193 z m 31.10385,-1.63213 c 1.21992,-0.346514 1.86193,-7.507763 1.0955,-12.219758 -1.31105,-8.06034 -4.98768,-10.990015 -11.97235,-9.540004 -3.67054,0.762001 -6.49244,2.995479 -7.53223,5.961601 -0.73065,2.084247 -0.81713,15.09929 -0.10796,16.246751 0.33611,0.543842 16.39255,0.154862 18.51704,-0.44859 z"
       id="path4617"
       inkscape:connector-curvature="0"
       transform="translate(-0.327,-0.089)" /><path
       style="fill:#000000"
       d="m -198.99168,-54.033106 c -1.86227,-1.724129 -3.29952,-3.221201 -3.19389,-3.326827 0.27695,-0.276951 80.65822,-3.546682 80.91352,-3.291383 0.11742,0.117416 -0.61209,1.471177 -1.62112,3.008357 -1.59762,2.433847 -2.12005,2.830713 -4.04432,3.072331 -1.21534,0.152602 -15.75798,0.906967 -32.31699,1.676369 -16.559,0.7694 -31.51217,1.53324 -33.22927,1.697421 l -3.12199,0.298511 -3.38594,-3.134779 z"
       id="path4619"
       inkscape:connector-curvature="0"
       transform="translate(-0.327,-0.089)" /></g></g><path
   style="fill:#ffa900;fill-opacity:1;stroke:#000000;stroke-width:1px;stroke-linecap:butt;stroke-linejoin:miter;stroke-opacity:1"
   d="m 344.59488,130.87975 c 0.52084,0 1.5625,-0.52083 1.5625,0 0,0.52084 -1.93078,-0.36828 -1.5625,0 0.41616,0.41616 1.61566,0.39063 2.34375,0.39063 0.13021,0 0.26042,0 0.39063,0 0.13021,0 0.29855,-0.0921 0.39062,0 0.0921,0.0921 -0.0921,0.29855 0,0.39062 0.18414,0.18415 0.59711,-0.18414 0.78125,0 0.0921,0.0921 -0.0921,0.29856 0,0.39063 0.18414,0.18414 0.54833,-0.11646 0.78125,0 0.1647,0.0823 0.22593,0.30826 0.39063,0.39062 0.11646,0.0582 0.29855,-0.0921 0.39062,0 0.0921,0.0921 -0.0921,0.29856 0,0.39063 0.18414,0.18414 0.59711,-0.18415 0.78125,0 0.0921,0.0921 -0.0921,0.29855 0,0.39062 0.0921,0.0921 0.27417,-0.0582 0.39063,0 0.1647,0.0823 0.22592,0.30828 0.39062,0.39063 0.11646,0.0582 0.29856,-0.0921 0.39063,0 0.0921,0.0921 -0.0921,0.29855 0,0.39062 0.0921,0.0921 0.27416,-0.0582 0.39062,0 0.1647,0.0823 0.22593,0.30828 0.39063,0.39063 0.11646,0.0582 0.27416,-0.0582 0.39062,0 0.1647,0.0823 0.22593,0.30826 0.39063,0.39062 0.11646,0.0582 0.29855,-0.0921 0.39062,0 0.0921,0.0921 -0.0921,0.29856 0,0.39063 0.18414,0.18414 0.59711,-0.18415 0.78125,0 0.0921,0.0921 -0.0921,0.29855 0,0.39062 0.0921,0.0921 0.29856,-0.0921 0.39063,0 0.0921,0.0921 -0.0921,0.29856 0,0.39063 0.18414,0.18414 0.59711,-0.18415 0.78125,0 0.0921,0.0921 -0.0921,0.29855 0,0.39062 0.0921,0.0921 0.29855,-0.0921 0.39062,0 0.0921,0.0921 -0.0921,0.29856 0,0.39063 0.19532,0.19531 0.97657,-0.19532 1.17188,0 0.0921,0.0921 -0.0921,0.29855 0,0.39062 0.18414,0.18415 0.54832,-0.11646 0.78125,0 1.29554,1.29554 -0.36829,-0.18414 0.78125,0.39063 0.3294,0.1647 0.45184,0.61654 0.78125,0.78125 0.23292,0.11645 0.54832,-0.11646 0.78125,0 0.1647,0.0823 0.22592,0.30826 0.39062,0.39062 0.23293,0.11647 0.59711,-0.18414 0.78125,0 0.0921,0.0921 -0.0921,0.29856 0,0.39063 0.19532,0.19531 0.97657,-0.19532 1.17188,0 0.0921,0.0921 -0.0921,0.29855 0,0.39062 0.0921,0.0921 0.27416,-0.0582 0.39062,0 0.1647,0.0823 0.22593,0.30828 0.39063,0.39063 0.23292,0.11645 0.59711,-0.18415 0.78125,0 0,1.04167 -0.13021,-0.13022 0.39062,0.39062 0.18415,0.18415 -0.18414,0.59711 0,0.78125 0.18415,0.18415 0.59711,-0.18414 0.78125,0 0.0921,0.0921 0,0.26042 0,0.39063 0.13021,0 0.29856,-0.0921 0.39063,0 0.0921,0.0921 -0.0921,0.29855 0,0.39062 0.0921,0.0921 0.29855,-0.0921 0.39062,0 0.18415,0.18415 -0.18414,0.59711 0,0.78125 0.0921,0.0921 0.29856,-0.0921 0.39063,0 0.0921,0.0921 0,0.26042 0,0.39062 0.13021,0 0.29855,-0.0921 0.39062,0 0.18415,0.18415 -0.18414,0.59711 0,0.78125 0.0921,0.0921 0.29856,-0.0921 0.39063,0 0.18414,0.18415 -0.18414,0.59711 0,0.78125 0.0921,0.0921 0.29855,-0.0921 0.39062,0 0.18415,0.18415 -0.18414,0.59711 0,0.78125 0.0921,0.0921 0.29856,-0.0921 0.39063,0 0.18414,0.18415 -0.18414,0.59711 0,0.78125 0.0921,0.0921 0.29855,-0.0921 0.39062,0 0.18415,0.18415 -0.18414,0.59711 0,0.78125 0.0921,0.0921 0.27417,-0.0582 0.39063,0 0.1647,0.0823 0.22592,0.30827 0.39062,0.39063 0.11646,0.0582 0.29856,-0.0921 0.39063,0 0.0921,0.0921 -0.0921,0.29856 0,0.39062 0.0921,0.0921 0.29855,-0.0921 0.39062,0 0.0921,0.0921 -0.0921,0.29855 0,0.39063 0.0921,0.0921 0.29856,-0.0921 0.39063,0 0.0921,0.0921 -0.0921,0.29856 0,0.39062 0.18414,0.18415 0.59711,-0.18414 0.78125,0 0.0921,0.0921 -0.0921,0.29855 0,0.39063 0.0921,0.0921 0.29855,-0.0921 0.39062,0 0.0921,0.0921 -0.0921,0.29856 0,0.39062 0.18415,0.18415 0.59711,-0.18414 0.78125,0 0.0921,0.0921 -0.0921,0.29855 0,0.39063 0.0921,0.0921 0.39063,-0.13021 0.39063,0 0,0.13021 -0.52084,0 -0.39063,0 0.26042,0 0.52084,0 0.78125,0 0.13021,0 0.29856,0.0921 0.39063,0 0.0921,-0.0921 -0.0921,-0.29856 0,-0.39063 0.0921,-0.0921 0.29855,0.0921 0.39062,0 0.0921,-0.0921 -0.0921,-0.29856 0,-0.39062 0.19532,-0.19532 0.97657,0.19532 1.17188,0 0.0921,-0.0921 0,-0.26042 0,-0.39063 0.13021,0 0.29855,0.0921 0.39062,0 0.13029,-0.13029 -0.13028,-0.65097 0,-0.78125 0.18415,-0.18414 0.59711,0.18415 0.78125,0 0.0921,-0.0921 -0.0921,-0.29856 0,-0.39062 1.04167,0 -0.13021,0.13021 0.39063,-0.39063 0.0921,-0.0921 0.29855,0.0921 0.39062,0 0.18415,-0.18414 -0.18414,-0.5971 0,-0.78125 0.0921,-0.0921 0.29856,0.0921 0.39063,0 0.0921,-0.0921 -0.0921,-0.29856 0,-0.39062 0.0921,-0.0921 0.29855,0.0921 0.39062,0 0.19532,-0.19532 -0.19531,-0.97657 0,-1.17188 0.0921,-0.0921 0.29856,0.0921 0.39063,0 0.0921,-0.0921 -0.0921,-0.29856 0,-0.39062 0.0921,-0.0921 0.29855,0.0921 0.39062,0 0.0921,-0.0921 -0.0582,-0.27416 0,-0.39063 0.0824,-0.1647 0.30828,-0.22592 0.39063,-0.39062 0.0582,-0.11646 -0.0921,-0.29856 0,-0.39063 0.0921,-0.0921 0.29855,0.0921 0.39062,0 0.12983,-0.12983 -0.12982,-0.65141 0,-0.78124 0.0921,-0.0921 0.29856,0.0921 0.39063,0 0.18414,-0.18415 -0.18414,-0.59711 0,-0.78125 0.0921,-0.0921 0.29855,0.0921 0.39062,0 0.0921,-0.0921 -0.0921,-0.29857 0,-0.39063 0.0921,-0.0921 0.29856,0.0921 0.39063,0 0.0921,-0.0921 -0.0582,-0.27416 0,-0.39062 0.1647,-0.32941 0.61655,-0.45186 0.78125,-0.78125 0.0582,-0.11646 -0.0921,-0.29857 0,-0.39063 0.0921,-0.0921 0.29855,0.0921 0.39062,0 0,-1.04166 -0.13021,0.13021 0.39063,-0.39062 0.18414,-0.18415 -0.18414,-0.59711 0,-0.78125 0.0921,-0.0921 0.29855,0.0921 0.39062,0 0.0921,-0.0921 -0.0921,-0.29857 0,-0.39063 0.18415,-0.18414 0.54833,0.11647 0.78125,0 1.62569,-0.81284 -0.41759,0.027 0.39063,-0.78125 0.13026,-0.13025 0.65099,0.13026 0.78125,0 0.18414,-0.18414 -0.18414,-0.5971 0,-0.78125 0.0921,-0.0921 0.29855,0.0921 0.39062,0 0,-1.04166 -0.13021,0.13021 0.39063,-0.39062 0.0921,-0.0921 -0.0921,-0.29857 0,-0.39063 0.0921,-0.0921 0.29855,0.0921 0.39062,0 0.0921,-0.0921 -0.0921,-0.29855 0,-0.39062 0.0921,-0.0921 0.27417,0.0582 0.39063,0 1.62569,-0.81285 -0.41759,0.027 0.39062,-0.78125 0.18415,-0.18415 0.59711,0.18414 0.78125,0 0.19532,-0.19532 -0.19531,-0.97657 0,-1.17188 0.0921,-0.0921 0.29856,0.0921 0.39063,0 0.10688,-0.10688 -0.10596,-1.35059 0,-1.5625 0.0824,-0.1647 0.30827,-0.22592 0.39062,-0.39062 0.11646,-0.23294 -0.18414,-0.59711 0,-0.78125 0.0921,-0.0921 0.29856,0.0921 0.39063,0 0,-1.04168 -0.13021,0.13021 0.39062,-0.39063 0.18415,-0.18414 -0.18414,-0.5971 0,-0.78125 0.0921,-0.0921 0.29856,0.0921 0.39063,0 0.0921,-0.0921 -0.0921,-0.29855 0,-0.39062 0.0921,-0.0921 0.29855,0.0921 0.39062,0 0.18415,-0.18415 -0.18414,-0.59711 0,-0.78125 0.0921,-0.0921 0.29856,0.0921 0.39063,0 0.0921,-0.0921 -0.0921,-0.29857 0,-0.39063 1.04166,0 -0.13021,0.13021 0.39062,-0.39062 0.0921,-0.0921 0.29856,0.0921 0.39063,0 0.0921,-0.0921 -0.0921,-0.29857 0,-0.39063 0.13017,-0.13017 0.65108,0.13017 0.78125,0 0.0921,-0.0921 -0.0921,-0.29855 0,-0.39062 0.19531,-0.19532 0.97656,0.19531 1.17187,0 0.0921,-0.0921 -0.0921,-0.29857 0,-0.39063 0.0921,-0.0921 0.26042,0 0.39063,0 0.13021,0 0.29855,-0.0921 0.39062,0 0.10689,0.10689 -0.10595,1.35059 0,1.5625 0.0824,0.16471 0.30828,0.22593 0.39063,0.39063 0.0774,0.15487 -0.0799,1.09201 0,1.17187 0.0921,0.0921 0.29855,-0.0921 0.39062,0 0.0921,0.0921 0,0.26042 0,0.39063 0,0.18418 -0.0177,1.93541 0,1.95312 0.0921,0.0921 0.29856,-0.0921 0.39063,0 0.19531,0.19532 -0.19531,0.97657 0,1.17188 0.0921,0.0921 0.29855,-0.0921 0.39062,0 0.0126,0.0126 0,1.07713 0,1.17187 0,1.17188 0,2.34375 0,3.51563 0,0.13021 0,0.26042 0,0.39062 0,0.13021 0.0921,0.29856 0,0.39063 -0.0921,0.0921 -0.29855,-0.0921 -0.39062,0 -0.0921,0.0921 0,0.26042 0,0.39062 0,0.27688 0.0505,2.24276 0,2.34375 -0.0824,0.16471 -0.30828,0.22593 -0.39063,0.39063 -0.0582,0.11645 0,0.26042 0,0.39062 0,0.13021 0,0.26042 0,0.39063 0,0.78124 0,1.56249 0,2.34374 0,0.13021 -0.0921,0.29855 0,0.39063 0.0921,0.0921 0.29856,-0.0921 0.39063,0 0.0921,0.0921 0,0.26042 0,0.39062 0,0.65104 0,1.30208 0,1.95313 0,0.13021 -0.0921,0.29856 0,0.39062 0.0921,0.0921 0.29855,-0.0921 0.39062,0 0.0921,0.0921 0,0.26042 0,0.39063 0,0.18417 -0.0177,1.93541 0,1.95312 0.0921,0.0921 0.29856,-0.0921 0.39063,0 0.18414,0.18415 -0.18414,0.59711 0,0.78125 0.0921,0.0921 0.29855,-0.0921 0.39062,0 0.0921,0.0921 -0.0921,0.29855 0,0.39063 0.0921,0.0921 0.26042,0 0.39063,0 0.13021,0 0.26041,0 0.39062,0 1.17188,0 2.34375,0 3.51563,0 2.21354,0 4.42708,0 6.64062,0 0.0947,0 1.15932,0.0126 1.17188,0 0.0921,-0.0921 -0.0921,-0.29856 0,-0.39063 0.0921,-0.0921 0.26041,0 0.39062,0 0.18418,0 1.93542,0.0177 1.95313,0 0.0921,-0.0921 -0.0921,-0.29856 0,-0.39062 0.0921,-0.0921 0.26041,0 0.39062,0 0.13021,0 0.26042,0 0.39063,0 0.27687,0 2.24275,0.0505 2.34375,0 0.1647,-0.0824 0.22592,-0.30827 0.39062,-0.39063 0.10271,-0.0514 1.35824,0 1.5625,0 1.04167,0 2.08334,0 3.125,0 0.13021,0 0.26042,0 0.39063,0 0.13021,0 0.29855,0.0921 0.39062,0 0.0921,-0.0921 -0.0921,-0.29856 0,-0.39062 0.0157,-0.0157 1.41905,0 1.5625,0 0.13021,0 0.29856,-0.0921 0.39063,0 0.0921,0.0921 0,0.26042 0,0.39062 0,0.65104 0,1.30208 0,1.95313 0,0.13021 -0.0921,0.29856 0,0.39062 0.0921,0.0921 0.29855,-0.0921 0.39062,0 0.0921,0.0921 -0.0921,0.29855 0,0.39063 0.0921,0.0921 0.29856,-0.0921 0.39063,0 0.12983,0.12982 -0.12983,0.65143 0,0.78125 0.0921,0.0921 0.29855,-0.0921 0.39062,0 0.19532,0.19532 -0.19531,0.97657 0,1.17187 0.0921,0.0921 0.29856,-0.0921 0.39063,0 0.0921,0.0921 0,0.26042 0,0.39063 0,0.13021 0,0.26042 0,0.39062 0,0.0947 0.0126,1.15931 0,1.17188 -0.0921,0.0921 -0.29856,-0.0921 -0.39063,0 -0.80821,0.80822 1.23507,-0.0316 -0.39062,0.78125 -0.11646,0.0582 -0.29856,-0.0921 -0.39063,0 -0.18414,0.18414 0.18415,0.5971 0,0.78125 -0.0921,0.0921 -0.29855,-0.0921 -0.39062,0 -0.0921,0.0921 0.0921,0.29856 0,0.39062 -0.0921,0.0921 -0.29856,-0.0921 -0.39063,0 -0.0921,0.0921 0.0921,0.29855 0,0.39063 -0.0921,0.0921 -0.29855,-0.0921 -0.39062,0 -0.0921,0.0921 0,0.26042 0,0.39062 -0.13021,0 -0.27417,-0.0582 -0.39063,0 -1.62568,0.81284 0.41759,-0.027 -0.39062,0.78125 -0.18414,0.18415 -0.59711,-0.18414 -0.78125,0 -0.0921,0.0921 0.0921,0.29855 0,0.39063 -0.0921,0.0921 -0.29856,-0.0921 -0.39063,0 -0.0921,0.0921 0.0921,0.29856 0,0.39062 -0.0921,0.0921 -0.27416,-0.0582 -0.39062,0 -0.10519,0.0526 -0.67607,0.72866 -0.78125,0.78125 -0.11646,0.0582 -0.29856,-0.0921 -0.39063,0 -0.0921,0.0921 0.0921,0.29855 0,0.39063 -0.0921,0.0921 -0.29855,-0.0921 -0.39062,0 -0.0921,0.0921 0,0.26042 0,0.39062 -0.13021,0 -0.29856,-0.0921 -0.39063,0 -0.0921,0.0921 0.0921,0.29855 0,0.39063 -0.0921,0.0921 -0.29855,-0.0921 -0.39062,0 -0.0921,0.0921 0.0921,0.29856 0,0.39062 -0.0921,0.0921 -0.29856,-0.0921 -0.39063,0 -0.0921,0.0921 0.0921,0.29855 0,0.39063 -0.13017,0.13016 -0.65108,-0.13017 -0.78125,0 -0.18414,0.18414 0.18415,0.5971 0,0.78125 -0.0921,0.0921 -0.29855,-0.0921 -0.39062,0 -0.0921,0.0921 0.0921,0.29856 0,0.39062 -0.0921,0.0921 -0.29856,-0.0921 -0.39063,0 -0.0921,0.0921 0.0921,0.29855 0,0.39063 -0.0921,0.0921 -0.29855,-0.0921 -0.39062,0 -0.0921,0.0921 0.0921,0.29856 0,0.39062 -0.0921,0.0921 -0.29856,-0.0921 -0.39063,0 -0.0921,0.0921 0.0921,0.29855 0,0.39063 -0.0921,0.0921 -0.29855,-0.0921 -0.39062,0 -0.0921,0.0921 0.0921,0.29856 0,0.39062 -0.0921,0.0921 -0.29856,-0.0921 -0.39063,0 -0.0921,0.0921 0.0921,0.29855 0,0.39063 -0.0921,0.0921 -0.29855,-0.0921 -0.39062,0 -0.0921,0.0921 0.0921,0.29856 0,0.39062 -0.13017,0.13017 -0.65108,-0.13017 -0.78125,0 -0.0921,0.0921 0.0921,0.29855 0,0.39063 -0.0921,0.0921 -0.29856,-0.0921 -0.39063,0 -0.0921,0.0921 0.0921,0.29856 0,0.39062 -0.13025,0.13026 -0.65099,-0.13026 -0.78125,0 -0.18414,0.18415 0.18415,0.59711 0,0.78125 -0.19531,0.19531 -0.97656,-0.19531 -1.17187,0 -0.0921,0.0921 0.0921,0.29855 0,0.39063 -0.0921,0.0921 -0.29856,-0.0921 -0.39063,0 -0.0921,0.0921 0,0.26042 0,0.39062 -0.13021,0 -0.29855,-0.0921 -0.39062,0 -0.0921,0.0921 0.0921,0.29855 0,0.39063 -0.0921,0.0921 -0.29856,-0.0921 -0.39063,0 -0.0921,0.0921 0.0921,0.29856 0,0.39062 -0.0921,0.0921 -0.29855,-0.0921 -0.39062,0 -0.12096,0.12095 0.12095,1.83217 0,1.95313 -0.0921,0.0921 -0.29856,-0.0921 -0.39063,0 -0.0921,0.0921 0.0921,0.29856 0,0.39062 -0.0921,0.0921 -0.29855,-0.0921 -0.39062,0 -0.0921,0.0921 0.0921,0.29855 0,0.39063 -0.0921,0.0921 -0.29856,-0.0921 -0.39063,0 -0.0126,0.0126 0,1.07713 0,1.17187 0,0.13021 -0.0921,0.29855 0,0.39063 0.18415,0.18414 0.59711,-0.18415 0.78125,0 0.0921,0.0921 -0.0921,0.29856 0,0.39062 0.18415,0.18415 0.59711,-0.18414 0.78125,0 0.0921,0.0921 -0.0921,0.29855 0,0.39063 0.0921,0.0921 0.26042,0 0.39063,0 0.27169,0 1.81186,-0.0706 1.95312,0 0.1647,0.0823 0.22593,0.30827 0.39063,0.39062 0.14126,0.0706 1.68143,0 1.95312,0 0.13021,0 0.29856,-0.0921 0.39063,0 0.0921,0.0921 -0.0921,0.29855 0,0.39063 0.19531,0.19532 0.97656,-0.19532 1.17187,0 0.0921,0.0921 0,0.26042 0,0.39062 0.13021,0 0.29856,-0.0921 0.39063,0 0.0921,0.0921 -0.0921,0.29855 0,0.39063 0.18414,0.18414 0.59711,-0.18415 0.78125,0 0.0921,0.0921 -0.0921,0.29856 0,0.39062 0.19531,0.19531 0.97656,-0.19531 1.17187,0 0.0921,0.0921 -0.0921,0.29855 0,0.39063 0.13039,0.13039 0.65087,-0.13039 0.78125,0 0.0921,0.0921 -0.0921,0.29856 0,0.39062 0.18415,0.18415 0.59711,-0.18414 0.78125,0 0.0921,0.0921 -0.0921,0.29855 0,0.39063 0.18415,0.18414 0.59711,-0.18415 0.78125,0 0.0921,0.0921 -0.0921,0.29856 0,0.39062 0.0921,0.0921 0.29856,-0.0921 0.39063,0 0.0921,0.0921 -0.0921,0.29855 0,0.39063 0.0921,0.0921 0.29855,-0.0921 0.39062,0 0.0921,0.0921 -0.0921,0.29856 0,0.39062 0.0921,0.0921 0.29856,-0.0921 0.39063,0 0.0921,0.0921 -0.0921,0.29855 0,0.39063 0.13038,0.13039 0.65086,-0.13039 0.78125,0 0.18414,0.18414 -0.18414,0.5971 0,0.78125 0.18414,0.18414 0.59711,-0.18415 0.78125,0 0.0921,0.0921 -0.0921,0.29856 0,0.39062 0.18414,0.18415 0.59711,-0.18414 0.78125,0 0,1.04167 -0.13021,-0.13021 0.39062,0.39063 0.0921,0.0921 -0.0921,0.29856 0,0.39062 0.0921,0.0921 0.29856,-0.0921 0.39063,0 0.0921,0.0921 -0.0921,0.29855 0,0.39063 0.0921,0.0921 0.29855,-0.0921 0.39062,0 0.0921,0.0921 -0.0921,0.29856 0,0.39062 0.0921,0.0921 0.29856,-0.0921 0.39063,0 0.0921,0.0921 -0.0921,0.29855 0,0.39063 0.0921,0.0921 0.29855,-0.0921 0.39062,0 0.0921,0.0921 -0.0921,0.29856 0,0.39062 0.0921,0.0921 0.27417,-0.0582 0.39063,0 0.1647,0.0823 0.22592,0.30827 0.39062,0.39063 0.11646,0.0582 0.29856,-0.0921 0.39063,0 0.0921,0.0921 -0.0921,0.29856 0,0.39062 0.18414,0.18415 0.59711,-0.18414 0.78125,0 0.0921,0.0921 -0.0921,0.29855 0,0.39063 1.04166,0 -0.13021,-0.13021 0.39062,0.39062 0.0921,0.0921 0.29856,-0.0921 0.39063,0 0,1.04167 -0.13021,-0.13021 0.39062,0.39063 0.0921,0.0921 -0.0921,0.29856 0,0.39062 0.0921,0.0921 0.29856,-0.0921 0.39063,0 0,1.04167 -0.13021,-0.13021 0.39062,0.39063 0.0921,0.0921 -0.0921,0.29856 0,0.39062 0.18415,0.18415 0.59711,-0.18414 0.78125,0 0.0921,0.0921 -0.0582,0.27416 0,0.39063 0.0824,0.16471 0.30828,0.22593 0.39063,0.39062 0.11646,0.23292 -0.18414,0.59711 0,0.78125 0.0921,0.0921 0.29855,-0.0921 0.39062,0 0.19532,0.19531 -0.19531,0.97656 0,1.17188 0.0921,0.0921 0.29856,-0.0921 0.39063,0 0.18414,0.18414 -0.18414,0.5971 0,0.78125 0.0921,0.0921 0.29855,-0.0921 0.39062,0 0.0921,0.0921 0,0.26042 0,0.39062 0,0.13021 0,0.26042 0,0.39063 0,0.0947 0.0126,1.15932 0,1.17187 -0.0921,0.0921 -0.29855,-0.0921 -0.39062,0 -0.0921,0.0921 0.0921,0.29855 0,0.39063 -0.0921,0.0921 -0.26042,0 -0.39063,0 -0.13021,0 -0.26041,0 -0.39062,0 -1.17188,0 -2.34375,0 -3.51563,0 -2.47396,0 -4.94791,0 -7.42187,0 -0.0947,0 -1.15931,0.0126 -1.17188,0 -0.0921,-0.0921 0.0921,-0.29856 0,-0.39063 -0.0921,-0.0921 -0.26041,0 -0.39062,0 -0.13021,0 -0.26042,0 -0.39063,0 -1.30208,0 -2.60416,0 -3.90625,0 -0.91146,0 -1.82291,0 -2.73437,0 -0.13021,0 -0.29856,0.0921 -0.39063,0 -0.0921,-0.0921 0.0921,-0.29855 0,-0.39062 -0.0921,-0.0921 -0.26041,0 -0.39062,0 -0.14345,0 -1.54678,-0.0157 -1.5625,0 -0.0921,0.0921 0.0921,0.29856 0,0.39062 -0.0157,0.0157 -1.41905,0 -1.5625,0 -0.52084,0 -1.04167,0 -1.5625,0 -0.13021,0 -0.26042,0 -0.39063,0 -0.13021,0 -0.39062,0.13021 -0.39062,0 0,-0.13021 0.39062,-0.13021 0.39062,0 0,0.18415 -0.30827,0.22592 -0.39062,0.39063 -0.0514,0.10272 0,1.35823 0,1.5625 0,1.04167 -0.13021,-0.13021 0.39062,0.39062 0.0921,0.0921 -0.0921,0.29855 0,0.39063 0.0921,0.0921 0.29856,-0.0921 0.39063,0 0.18414,0.18414 -0.18414,0.5971 0,0.78125 0.0921,0.0921 0.29855,-0.0921 0.39062,0 0.13029,0.13029 -0.13028,0.65097 0,0.78125 0.18415,0.18414 0.59711,-0.18415 0.78125,0 0.18415,0.18414 -0.18414,0.5971 0,0.78125 0.0921,0.0921 0.29856,-0.0921 0.39063,0 0.18414,0.18414 -0.18414,0.5971 0,0.78125 0.0921,0.0921 0.29855,-0.0921 0.39062,0 0.18415,0.18414 -0.11646,0.54832 0,0.78125 0.0824,0.16471 0.30828,0.22593 0.39063,0.39062 0.0582,0.11646 -0.0921,0.29855 0,0.39063 0.0921,0.0921 0.29855,-0.0921 0.39062,0 0.19532,0.19532 -0.19531,0.97657 0,1.17187 0.0921,0.0921 0.29856,-0.0921 0.39063,0 0.0921,0.0921 0,0.26042 0,0.39063 0,0.13021 0,0.26042 0,0.39062 0,1.5625 0,3.125 0,4.6875 0,0.65104 0,1.30208 0,1.95313 0,0.13021 0.0921,0.29856 0,0.39062 -0.0921,0.0921 -0.29856,-0.0921 -0.39063,0 -0.0921,0.0921 0.0582,0.27416 0,0.39063 -0.0824,0.16471 -0.30827,0.22593 -0.39062,0.39062 -0.0706,0.14126 0,1.68143 0,1.95313 0,0.13021 0.0921,0.29856 0,0.39062 -0.0921,0.0921 -0.29856,-0.0921 -0.39063,0 -0.19531,0.19531 0.19532,0.97656 0,1.17188 -0.0921,0.0921 -0.29855,-0.0921 -0.39062,0 -0.18414,0.18414 0.11646,0.54832 0,0.78125 -0.81285,1.62568 0.027,-0.41759 -0.78125,0.39062 -0.18414,0.18415 0.18414,0.59711 0,0.78125 -0.0921,0.0921 -0.29856,-0.0921 -0.39063,0 -0.18414,0.18415 0.18415,0.59711 0,0.78125 -0.0921,0.0921 -0.26041,0 -0.39062,0 -0.78125,0 -1.5625,0 -2.34375,0 -0.13021,0 -0.26042,0 -0.39063,0 -0.13021,0 -0.29855,0.0921 -0.39062,0 -0.0921,-0.0921 0.0921,-0.29855 0,-0.39062 -0.0921,-0.0921 -0.29856,0.0921 -0.39063,0 -0.0921,-0.0921 0.0921,-0.29856 0,-0.39063 -0.13029,-0.1303 -0.65095,0.1303 -0.78125,0 -0.0921,-0.0921 0.0921,-0.29855 0,-0.39062 -0.80821,-0.80822 0.0316,1.23507 -0.78125,-0.39063 -0.0582,-0.11646 0.0921,-0.29855 0,-0.39062 -0.18414,-0.18415 -0.5971,0.18414 -0.78125,0 -0.0921,-0.0921 0.0921,-0.29856 0,-0.39063 -0.0921,-0.0921 -0.29855,0.0921 -0.39062,0 -0.0921,-0.0921 0.0921,-0.29855 0,-0.39062 -0.18414,-0.18415 -0.59711,0.18414 -0.78125,0 -0.0921,-0.0921 0.0921,-0.29856 0,-0.39063 -0.0921,-0.0921 -0.29856,0.0921 -0.39063,0 -0.0921,-0.0921 0,-0.26042 0,-0.39062 -0.13021,0 -0.29855,0.0921 -0.39062,0 -0.0921,-0.0921 0.0921,-0.29856 0,-0.39063 -0.0921,-0.0921 -0.29856,0.0921 -0.39063,0 -0.0921,-0.0921 0.0582,-0.27416 0,-0.39062 -0.0904,-0.1809 -1.33275,-1.33276 -1.5625,-1.5625 -0.13021,-0.13021 -0.26041,-0.26042 -0.39062,-0.39063 -0.13021,0 -0.29856,0.0921 -0.39063,0 -0.0921,-0.0921 0.0921,-0.29855 0,-0.39062 -0.80821,-0.80822 0.0316,1.23507 -0.78125,-0.39063 -0.0582,-0.11646 0.0921,-0.29855 0,-0.39062 -0.18414,-0.18415 -0.5971,0.18414 -0.78125,0 -0.0921,-0.0921 0.0921,-0.29856 0,-0.39063 -0.19531,-0.19531 -0.97656,0.19531 -1.17187,0 -0.0921,-0.0921 0.0921,-0.29855 0,-0.39062 -0.18414,-0.18415 -0.59711,0.18414 -0.78125,0 -0.0921,-0.0921 0.0921,-0.29856 0,-0.39063 -0.0921,-0.0921 -0.29856,0.0921 -0.39063,0 -0.0921,-0.0921 0.0921,-0.29855 0,-0.39062 -0.18414,-0.18415 -0.5971,0.18414 -0.78125,0 -0.0921,-0.0921 0.0921,-0.29856 0,-0.39063 -0.38534,-0.38534 -0.78125,0.80042 -0.78125,-0.39062 0,-1.19104 -0.3959,-0.005 -0.78125,-0.39063 -0.0921,-0.0921 0.0921,-0.29855 0,-0.39062 -0.0921,-0.0921 -0.29855,0.0921 -0.39062,0 -0.0921,-0.0921 0.0921,-0.29856 0,-0.39063 -0.0921,-0.0921 -0.29856,0.0921 -0.39063,0 -0.18414,-0.18414 0.18415,-0.5971 0,-0.78125 -0.0921,-0.0921 -0.29855,0.0921 -0.39062,0 -0.0921,-0.0921 0.0582,-0.27416 0,-0.39062 -0.0824,-0.16471 -0.30828,-0.22593 -0.39063,-0.39063 -0.11646,-0.23292 0.18415,-0.5971 0,-0.78125 -0.0921,-0.0921 -0.29855,0.0921 -0.39062,0 -0.19531,-0.19531 0.19531,-0.97656 0,-1.17187 -0.0921,-0.0921 -0.29856,0.0921 -0.39063,0 -0.80821,-0.80822 1.23507,0.0316 -0.39062,-0.78125 -0.11646,-0.0582 -0.29856,0.0921 -0.39063,0 -0.0921,-0.0921 -0.13021,-0.39063 0,-0.39063 0.13021,0 0,0.26042 0,0.39063 0,0.13021 0.0921,0.29856 0,0.39062 -0.0921,0.0921 -0.29855,-0.0921 -0.39062,0 -0.0799,0.0799 0.0774,1.01699 0,1.17188 -0.1647,0.3294 -0.61655,0.45185 -0.78125,0.78125 -0.11646,0.23293 0.18414,0.5971 0,0.78125 -0.0921,0.0921 -0.29856,-0.0921 -0.39063,0 -0.13046,0.13047 0.13047,0.65079 0,0.78125 -0.0921,0.0921 -0.29855,-0.0921 -0.39062,0 -0.0921,0.0921 0,0.26042 0,0.39062 0,0.78125 0,1.5625 0,2.34375 0,0.13021 0.0921,0.29855 0,0.39063 -0.0921,0.0921 -0.29856,-0.0921 -0.39063,0 -0.0921,0.0921 0.0921,0.29856 0,0.39062 -0.0921,0.0921 -0.29855,-0.0921 -0.39062,0 -0.13046,0.13046 0.13046,0.65079 0,0.78125 -0.0921,0.0921 -0.29856,-0.0921 -0.39063,0 -0.19531,0.19531 0.19532,0.97656 0,1.17188 -0.0921,0.0921 -0.29855,-0.0921 -0.39062,0 -0.0921,0.0921 0.0921,0.29856 0,0.39062 -0.0921,0.0921 -0.29856,-0.0921 -0.39063,0 -0.13046,0.13046 0.13047,0.65079 0,0.78125 -0.0921,0.0921 -0.29855,-0.0921 -0.39062,0 -0.18414,0.18415 0.18414,0.59711 0,0.78125 -0.0921,0.0921 -0.29856,-0.0921 -0.39063,0 -0.18414,0.18415 0.18415,0.59711 0,0.78125 -0.18414,0.18415 -0.5971,-0.18414 -0.78125,0 -0.18414,0.18415 0.18415,0.59711 0,0.78125 -0.0921,0.0921 -0.29855,-0.0921 -0.39062,0 -0.13046,0.13046 0.13046,0.65079 0,0.78125 -0.0921,0.0921 -0.27417,-0.0582 -0.39063,0 -0.1647,0.0823 -0.22592,0.30827 -0.39062,0.39063 -0.11646,0.0582 -0.29856,-0.0921 -0.39063,0 0,1.04167 0.13021,-0.13021 -0.39062,0.39062 -0.18414,0.18415 0.18414,0.59711 0,0.78125 -0.0921,0.0921 -0.29856,-0.0921 -0.39063,0 -0.0921,0.0921 0.0921,0.29855 0,0.39063 -0.0921,0.0921 -0.29855,-0.0921 -0.39062,0 -0.0921,0.0921 0.0921,0.29856 0,0.39062 -0.0921,0.0921 -0.29856,-0.0921 -0.39063,0 -0.19531,0.19531 0.19532,0.97656 0,1.17188 -0.0921,0.0921 -0.29855,-0.0921 -0.39062,0 -0.13046,0.13047 0.13046,0.65079 0,0.78125 -0.0921,0.0921 -0.29856,-0.0921 -0.39063,0 -0.19531,0.19532 0.19532,0.97657 0,1.17187 -0.0921,0.0921 -0.29855,-0.0921 -0.39062,0 -0.18414,0.18415 0.18414,0.59711 0,0.78125 -0.0921,0.0921 -0.29856,-0.0921 -0.39063,0 -0.18414,0.18415 0.11646,0.54833 0,0.78125 -0.81284,1.62569 0.027,-0.41759 -0.78125,0.39063 -0.18414,0.18414 0.11646,0.54832 0,0.78125 -0.0824,0.16471 -0.26041,0.26042 -0.39062,0.39062 -0.13021,0.13021 -0.22593,0.30827 -0.39063,0.39063 -0.11646,0.0582 -0.29855,-0.0921 -0.39062,0 -0.0921,0.0921 0.0921,0.29856 0,0.39062 -1.04167,0 0.13021,-0.13021 -0.39063,0.39063 -0.0126,0.0126 -1.07714,0 -1.17187,0 -0.18418,0 -1.93542,0.0177 -1.95313,0 -0.0921,-0.0921 0.0921,-0.29856 0,-0.39063 -0.0921,-0.0921 -0.29855,0.0921 -0.39062,0 -0.0921,-0.0921 0.0921,-0.29855 0,-0.39062 -0.0921,-0.0921 -0.29856,0.0921 -0.39063,0 -0.0921,-0.0921 0.0921,-0.29856 0,-0.39063 -0.0921,-0.0921 -0.29855,0.0921 -0.39062,0 -0.0921,-0.0921 0.0921,-0.29855 0,-0.39062 -0.0921,-0.0921 -0.29856,0.0921 -0.39063,0 -0.0921,-0.0921 0.0921,-0.29856 0,-0.39063 -0.0921,-0.0921 -0.29855,0.0921 -0.39062,0 -0.0921,-0.0921 0.0921,-0.29855 0,-0.39062 -0.0921,-0.0921 -0.29856,0.0921 -0.39063,0 -0.13046,-0.13046 0.13047,-0.65078 0,-0.78125 -0.0921,-0.0921 -0.29855,0.0921 -0.39062,0 -0.0921,-0.0921 0.0921,-0.29856 0,-0.39063 -0.0921,-0.0921 -0.29856,0.0921 -0.39063,0 -0.0921,-0.0921 0.0921,-0.29855 0,-0.39062 -0.0921,-0.0921 -0.29855,0.0921 -0.39062,0 -0.18414,-0.18415 0.11646,-0.54832 0,-0.78125 -0.0824,-0.16471 -0.30828,-0.22593 -0.39063,-0.39063 -0.11646,-0.23292 0.18415,-0.5971 0,-0.78125 -0.0921,-0.0921 -0.29855,0.0921 -0.39062,0 -0.13046,-0.13046 0.13046,-0.65079 0,-0.78125 -0.0921,-0.0921 -0.29856,0.0921 -0.39063,0 -0.0126,-0.0126 0,-1.07713 0,-1.17187 0,-0.0947 0.0126,-1.15932 0,-1.17188 -0.0921,-0.0921 -0.29855,0.0921 -0.39062,0 -0.12096,-0.12096 0.12095,-1.83217 0,-1.95312 -0.0921,-0.0921 -0.29856,0.0921 -0.39063,0 -0.12095,-0.12095 0.12096,-1.83217 0,-1.95313 -0.0921,-0.0921 -0.29855,0.0921 -0.39062,0 -0.094,-0.094 0.094,-1.4685 0,-1.5625 -0.0921,-0.0921 -0.29856,0.0921 -0.39063,0 -0.0177,-0.0177 0,-1.76895 0,-1.95312 0,-1.17188 0,-2.34375 0,-3.51563 0,-0.13021 0,-0.26042 0,-0.39062 0,-0.13021 0.0921,-0.29856 0,-0.39063 -0.0921,-0.0921 -0.29855,0.0921 -0.39062,0 -0.0921,-0.0921 0,-0.26042 0,-0.39062 0,-0.13021 0,-0.26042 0,-0.39063 0,-1.17187 0,-2.34375 0,-3.51562 0,-0.52083 0,-1.04167 0,-1.5625 0,-0.13021 -0.13021,-0.39063 0,-0.39063 0.13021,0 0.13021,0.39063 0,0.39063 -0.18414,0 -0.30828,-0.22593 -0.39063,-0.39063 -0.10595,-0.21191 0.10689,-1.45562 0,-1.5625 -0.0921,-0.0921 -0.29855,0.0921 -0.39062,0 -0.0921,-0.0921 0.0921,-0.29855 0,-0.39062 -0.0921,-0.0921 -0.29856,0.0921 -0.39063,0 -0.0921,-0.0921 0.0921,-0.29856 0,-0.39063 -0.0921,-0.0921 -0.26041,0 -0.39062,0 -0.13021,0 -0.26042,0 -0.39063,0 -0.14345,0 -1.54678,-0.0157 -1.5625,0 -0.0921,0.0921 0.0921,0.29855 0,0.39063 -0.18414,0.18414 -0.59711,-0.18415 -0.78125,0 -0.0921,0.0921 0.0921,0.29856 0,0.39062 -0.0921,0.0921 -0.29855,-0.0921 -0.39062,0 -0.0921,0.0921 0.0921,0.29855 0,0.39063 -0.0921,0.0921 -0.29856,-0.0921 -0.39063,0 -0.0921,0.0921 0.0921,0.29856 0,0.39062 -0.0921,0.0921 -0.29855,-0.0921 -0.39062,0 -0.0921,0.0921 0.0921,0.29855 0,0.39063 -0.0921,0.0921 -0.26042,0 -0.39063,0 -0.13021,0 -0.26041,0 -0.39062,0 -1.17188,0 -2.34375,0 -3.51563,0 -0.13021,0 -0.26041,0 -0.39062,0 -0.13021,0 -0.29856,-0.0921 -0.39063,0 -0.0921,0.0921 0.0921,0.29856 0,0.39062 -0.0921,0.0921 -0.26041,0 -0.39062,0 -0.13021,0 -0.26042,0 -0.39063,0 -1.17187,0 -2.34375,0 -3.51562,0 -2.08334,0 -4.16667,0 -6.25,0 -0.0947,0 -1.15932,0.0126 -1.17188,0 -0.0921,-0.0921 0.0921,-0.29855 0,-0.39062 -0.13029,-0.1303 -0.65095,0.1303 -0.78125,0 -0.0921,-0.0921 0.0921,-0.29856 0,-0.39063 -0.0921,-0.0921 -0.29855,0.0921 -0.39062,0 -0.0921,-0.0921 0.0921,-0.29855 0,-0.39062 -0.0921,-0.0921 -0.29856,0.0921 -0.39063,0 -0.0921,-0.0921 0.0921,-0.29856 0,-0.39063 -0.18414,-0.18414 -0.59711,0.18415 -0.78125,0 -0.12982,-0.12983 0.12983,-0.65142 0,-0.78125 -0.0921,-0.0921 -0.29855,0.0921 -0.39062,0 -0.0921,-0.0921 0.0921,-0.29855 0,-0.39062 -0.18414,-0.18415 -0.59711,0.18414 -0.78125,0 -0.0921,-0.0921 0.0921,-0.29856 0,-0.39063 -0.0921,-0.0921 -0.29856,0.0921 -0.39063,0 -0.0921,-0.0921 0.0921,-0.29855 0,-0.39062 -0.0921,-0.0921 -0.29855,0.0921 -0.39062,0 -0.0921,-0.0921 0.0921,-0.29856 0,-0.39063 -0.0921,-0.0921 -0.29856,0.0921 -0.39063,0 0,-1.04167 0.13021,0.13021 -0.39062,-0.39062 -0.18414,-0.18415 0.18414,-0.59711 0,-0.78125 -0.0921,-0.0921 -0.29856,0.0921 -0.39063,0 -0.0921,-0.0921 0,-0.26042 0,-0.39063 0,-0.0947 -0.0126,-1.15931 0,-1.17187 0.0921,-0.0921 0.29856,0.0921 0.39063,0 0.0921,-0.0921 -0.0921,-0.29856 0,-0.39063 0.0921,-0.0921 0.29855,0.0921 0.39062,0 0.13029,-0.13029 -0.13028,-0.65097 0,-0.78125 0.0921,-0.0921 0.26042,0 0.39063,0 0,-0.13021 -0.0582,-0.27416 0,-0.39062 0.0824,-0.16471 0.30827,-0.22593 0.39062,-0.39063 0.0582,-0.11646 -0.0921,-0.29855 0,-0.39062 0.0921,-0.0921 0.29856,0.0921 0.39063,0 0.0921,-0.0921 -0.0921,-0.29856 0,-0.39063 0.0921,-0.0921 0.29855,0.0921 0.39062,0 0.0921,-0.0921 -0.0921,-0.29855 0,-0.39062 0.18414,-0.18415 0.54833,0.11646 0.78125,0 0.1647,-0.0824 0.22593,-0.30827 0.39063,-0.39063 0.11646,-0.0582 0.27416,0.0582 0.39062,0 1.62569,-0.81284 -0.41759,0.027 0.39063,-0.78125 0.18414,-0.18414 0.59711,0.18415 0.78125,0 0.0921,-0.0921 -0.0921,-0.29855 0,-0.39062 0.0921,-0.0921 0.29855,0.0921 0.39062,0 0.0921,-0.0921 -0.0921,-0.29856 0,-0.39063 0.0921,-0.0921 0.29856,0.0921 0.39063,0 0.0921,-0.0921 -0.0921,-0.29855 0,-0.39062 0.0921,-0.0921 0.26041,0 0.39062,0 0.13021,0 0.26042,0 0.39063,0 1.04166,0 -0.13021,0.13021 0.39062,-0.39063 0.19532,-0.19531 0.97657,0.19531 1.17188,0 0.0921,-0.0921 -0.0921,-0.29855 0,-0.39062 0.0921,-0.0921 0.29855,0.0921 0.39062,0 0.0921,-0.0921 -0.0921,-0.29856 0,-0.39063 0.0921,-0.0921 0.29856,0.0921 0.39063,0 0.0921,-0.0921 -0.0921,-0.29855 0,-0.39062 0.0921,-0.0921 0.27416,0.0582 0.39062,0 0.1647,-0.0824 0.22593,-0.30827 0.39063,-0.39063 0.11646,-0.0582 0.29855,0.0921 0.39062,0 0.0921,-0.0921 -0.0921,-0.29855 0,-0.39062 0.0921,-0.0921 0.29856,0.0921 0.39063,0 0.0921,-0.0921 -0.0921,-0.29856 0,-0.39063 0.0921,-0.0921 0.27416,0.0582 0.39062,0 0.1647,-0.0823 0.22593,-0.30828 0.39063,-0.39062 0.11646,-0.0582 0.27416,0.0582 0.39062,0 0.1647,-0.0824 0.22593,-0.30827 0.39063,-0.39063 0.11646,-0.0582 0.29855,0.0921 0.39062,0 0.0921,-0.0921 -0.0921,-0.29855 0,-0.39062 0.0921,-0.0921 0.29856,0.0921 0.39063,0 0.0921,-0.0921 -0.0921,-0.29856 0,-0.39063 0.13029,-0.1303 0.65095,0.1303 0.78125,0 0.0921,-0.0921 -0.0921,-0.29855 0,-0.39062 0.18414,-0.18415 0.54832,0.11646 0.78125,0 0.1647,-0.0824 0.22592,-0.30827 0.39062,-0.39063 0.11646,-0.0582 0.29856,0.0921 0.39063,0 0.0921,-0.0921 -0.0921,-0.29855 0,-0.39062 0.19531,-0.19532 0.97656,0.19532 1.17187,0 0.0921,-0.0921 -0.0921,-0.29856 0,-0.39063 0.18414,-0.18414 0.59711,0.18415 0.78125,0 0.52084,-0.52083 -0.65104,-0.39062 0.39063,-0.39062 1.04166,0 -0.13021,0.13021 0.39062,-0.39063 0.0391,-0.0391 1.35417,0.18229 0.78125,-0.39062 -1.04166,0 0.13021,0.13021 -0.39062,-0.39063 -0.19531,-0.19531 -0.97656,0.19531 -1.17188,0 -0.0921,-0.0921 0.0921,-0.29855 0,-0.39062 -0.18414,-0.18415 -0.59711,0.18414 -0.78125,0 -0.0921,-0.0921 0.0921,-0.29856 0,-0.39063 -0.19531,-0.19531 -0.97656,0.19531 -1.17187,0 -0.0921,-0.0921 0.0921,-0.29855 0,-0.39062 -0.094,-0.094 -1.46851,0.094 -1.5625,0 -0.0921,-0.0921 0.0921,-0.29856 0,-0.39063 -0.18414,-0.18414 -0.54833,0.11646 -0.78125,0 -0.52134,-0.26067 -0.25991,-0.52058 -0.78125,-0.78125 -0.23293,-0.11646 -0.59711,0.18415 -0.78125,0 -0.0921,-0.0921 0.0921,-0.29855 0,-0.39062 -0.0921,-0.0921 -0.27417,0.0582 -0.39063,0 -0.1647,-0.0824 -0.22592,-0.30827 -0.39062,-0.39063 -0.11646,-0.0582 -0.29856,0.0921 -0.39063,0 -0.0921,-0.0921 0.0921,-0.29856 0,-0.39062 -0.18414,-0.18415 -0.59711,0.18414 -0.78125,0 -0.0921,-0.0921 0.0921,-0.29856 0,-0.39063 -0.19531,-0.19531 -0.97656,0.19531 -1.17187,0 -0.0921,-0.0921 0.0921,-0.29856 0,-0.39062 -0.0921,-0.0921 -0.27417,0.0582 -0.39063,0 -1.62569,-0.81284 0.41759,0.027 -0.39062,-0.78125 -0.0921,-0.0921 -0.29856,0.0921 -0.39063,0 -0.0921,-0.0921 0.0921,-0.29856 0,-0.39063 -0.18414,-0.18414 -0.59711,0.18415 -0.78125,0 -0.0921,-0.0921 0.0921,-0.29856 0,-0.39062 -0.0921,-0.0921 -0.29855,0.0921 -0.39062,0 -0.0921,-0.0921 0.0921,-0.29856 0,-0.39063 -0.0921,-0.0921 -0.27417,0.0582 -0.39063,0 -0.1647,-0.0823 -0.22592,-0.30828 -0.39062,-0.39062 -0.11646,-0.0582 -0.27417,0.0582 -0.39063,0 -0.1647,-0.0824 -0.22592,-0.30827 -0.39062,-0.39063 -0.11646,-0.0582 -0.29856,0.0921 -0.39063,0 -0.0921,-0.0921 0.0921,-0.29856 0,-0.39062 -0.18414,-0.18415 -0.59711,0.18414 -0.78125,0 -0.0921,-0.0921 0.0921,-0.29856 0,-0.39063 -0.0921,-0.0921 -0.27416,0.0582 -0.39062,0 -0.1647,-0.0823 -0.22593,-0.30828 -0.39063,-0.39062 -0.11646,-0.0582 -0.29855,0.0921 -0.39062,0 -0.0921,-0.0921 0.0921,-0.29856 0,-0.39063 -0.0921,-0.0921 -0.29856,0.0921 -0.39063,0 -0.0921,-0.0921 0.0921,-0.29856 0,-0.39062 -0.0921,-0.0921 -0.29855,0.0921 -0.39062,0 -0.0921,-0.0921 0.0921,-0.29856 0,-0.39063 -0.18414,-0.18414 -0.59711,0.18415 -0.78125,0 -0.0921,-0.0921 0.0921,-0.29856 0,-0.39062 -0.0921,-0.0921 -0.29856,0.0921 -0.39063,0 -0.0921,-0.0921 0.0921,-0.29856 0,-0.39063 -0.0921,-0.0921 -0.27416,0.0582 -0.39062,0 -0.1647,-0.0823 -0.22593,-0.30828 -0.39063,-0.39062 -0.11646,-0.0582 -0.29855,0.0921 -0.39062,0 -0.0921,-0.0921 0.0921,-0.29856 0,-0.39063 -0.0921,-0.0921 -0.29856,0.0921 -0.39063,0 0,-1.04167 0.13021,0.13021 -0.39062,-0.39062 -0.0921,-0.0921 0.0921,-0.29856 0,-0.39063 -0.18414,-0.18414 -0.59711,0.18415 -0.78125,0 -0.0921,-0.0921 0.0921,-0.29856 0,-0.39062 -0.13039,-0.13039 -0.65087,0.13039 -0.78125,0 -0.0921,-0.0921 0.0921,-0.29856 0,-0.39063 -0.0921,-0.0921 -0.29856,0.0921 -0.39063,0 -0.0921,-0.0921 0.0921,-0.29856 0,-0.39062 -0.0921,-0.0921 -0.29855,0.0921 -0.39062,0 -0.0921,-0.0921 0.0921,-0.29856 0,-0.39063 -0.0921,-0.0921 -0.27417,0.0582 -0.39063,0 -0.1647,-0.0823 -0.22592,-0.30828 -0.39062,-0.39062 -0.11646,-0.0582 -0.29856,0.0921 -0.39063,0 -0.0921,-0.0921 0.0921,-0.29856 0,-0.39063 -0.0921,-0.0921 -0.27416,0.0582 -0.39062,0 -1.62569,-0.81285 0.41759,0.027 -0.39063,-0.78125 -0.0921,-0.0921 -0.27416,0.0582 -0.39062,0 -0.1647,-0.0823 -0.22593,-0.30828 -0.39063,-0.39062 -0.23292,-0.11646 -0.59711,0.18414 -0.78125,0 -0.13028,-0.13028 0.13029,-0.65096 0,-0.78125 -0.0921,-0.0921 -0.29855,0.0921 -0.39062,0 -0.0921,-0.0921 0.0921,-0.29856 0,-0.39063 -0.18414,-0.18414 -0.59711,0.18415 -0.78125,0 -0.0921,-0.0921 0.0921,-0.29856 0,-0.39062 -0.0921,-0.0921 -0.29856,0.0921 -0.39063,0 -0.0921,-0.0921 0,-0.26042 0,-0.39063 0,-0.65104 0,-1.30208 0,-1.95312 0,-0.13021 0.0921,-0.29856 0,-0.39063 -0.0921,-0.0921 -0.29855,0.0921 -0.39062,0 -0.0921,-0.0921 0,-0.26042 0,-0.39062 0,-0.65104 0,-1.30208 0,-1.95313 0,-0.13021 -0.0921,-0.29856 0,-0.39062 0.18414,-0.18415 0.59711,0.18414 0.78125,0 0.0921,-0.0921 -0.0921,-0.29856 0,-0.39063 0.0921,-0.0921 0.26041,0 0.39062,0 0.13021,0 0.26042,0 0.39063,0 0.27169,0 1.81186,-0.0706 1.95312,0 0.96539,0.48269 -0.13483,0.39063 0.78125,0.39063 2.21354,0 4.42709,0 6.64063,0 1.04166,0 2.08333,0 3.125,0 0.13021,0 0.26041,0 0.39062,0 0.13021,0 0.29856,-0.0921 0.39063,0 0.0921,0.0921 -0.0921,0.29856 0,0.39062 0.0921,0.0921 0.26041,0 0.39062,0 0.78125,0 1.5625,0 2.34375,0 0.13021,0 0.29856,-0.0921 0.39063,0 0.0921,0.0921 -0.0921,0.29855 0,0.39063 0.19531,0.19532 0.97656,-0.19532 1.17187,0 0.0921,0.0921 -0.0921,0.29856 0,0.39062 0.10689,0.10688 1.35059,-0.10596 1.5625,0 0.1647,0.0823 0.22593,0.30827 0.39063,0.39063 0.14126,0.0706 1.68143,0 1.95312,0 0.13021,0 0.29856,-0.0921 0.39063,0 0.0921,0.0921 -0.0921,0.29856 0,0.39062 0.0921,0.0921 0.26041,0 0.39062,0 0.13021,0 0.26042,0 0.39063,0 0.91146,0 1.82291,0 2.73437,0 0.13021,0 0.29856,0.0921 0.39063,0 0.0921,-0.0921 0.0921,-0.29856 0,-0.39062 -0.19531,-0.19532 -0.97656,0.19532 -1.17188,0 -0.0921,-0.0921 0.0921,-0.29856 0,-0.39063 -0.18414,-0.18414 -0.59711,0.18415 -0.78125,0 -0.0921,-0.0921 0.0582,-0.27416 0,-0.39062 -0.0824,-0.16471 -0.30827,-0.22593 -0.39062,-0.39063 -0.0582,-0.11646 0.0921,-0.29856 0,-0.39062 -0.0921,-0.0921 -0.29856,0.0921 -0.39063,0 -0.0921,-0.0921 0.0921,-0.29856 0,-0.39063 -0.0921,-0.0921 -0.29855,0.0921 -0.39062,0 -0.18414,-0.18414 0.11646,-0.54833 0,-0.78125 -1.29554,-1.29553 0.18414,0.36828 -0.39063,-0.78125 -0.0824,-0.1647 -0.30827,-0.22592 -0.39062,-0.39062 -0.11646,-0.23293 0.11646,-0.54832 0,-0.78125 -0.1647,-0.3294 -0.61655,-0.45185 -0.78125,-0.78125 -0.10596,-0.21191 0.10688,-1.45562 0,-1.5625 -0.0921,-0.0921 -0.29856,0.0921 -0.39063,0 -0.0177,-0.0177 0,-1.76894 0,-1.95313 0,-0.0947 0.0126,-1.15931 0,-1.17187 -0.0921,-0.0921 -0.29855,0.0921 -0.39062,0 -0.094,-0.094 0.094,-1.46851 0,-1.5625 -0.0921,-0.0921 -0.29856,0.0921 -0.39063,0 -0.0157,-0.0157 0,-1.41904 0,-1.5625 0,-0.20427 0.0514,-1.45978 0,-1.5625 -0.0824,-0.1647 -0.30827,-0.22592 -0.39062,-0.39062 -0.0582,-0.11646 0,-0.26043 0,-0.39063 0,-0.1302 0,-0.26041 0,-0.39062 0,-0.78125 0,-1.5625 0,-2.34375 0,-0.13022 0.0921,-0.29857 0,-0.39063 -0.0921,-0.0921 -0.29856,0.0921 -0.39063,0 -0.0177,-0.0177 0,-1.76894 0,-1.95312 0,-0.13022 0.0921,-0.29857 0,-0.39063 -0.0921,-0.0921 -0.29855,0.0921 -0.39062,0 -0.18414,-0.18414 0.11646,-0.54832 0,-0.78125 -0.0824,-0.1647 -0.30828,-0.22592 -0.39063,-0.39062 -0.0594,-0.11888 0,-0.99596 0,-1.17188 0,-0.78125 0,-1.5625 0,-2.34375 z"
   id="path4755"
   inkscape:connector-curvature="0" /></svg>